<svg width="43" height="37" viewBox="0 0 43 37" fill="none" xmlns="http://www.w3.org/2000/svg">
<g clip-path="url(#clip0_1018_2933)">
<path d="M35.4733 13.3923H31.1683V3.92124C31.1683 2.77948 30.7148 1.68431 29.9073 0.877122C29.1002 0.0696222 28.005 -0.383789 26.8632 -0.383789H16.5312C15.3894 -0.383789 14.2943 0.0696529 13.4871 0.877122C12.6796 1.68431 12.2262 2.77948 12.2262 3.92124V8.22626H7.92113C6.77937 8.22626 5.68421 8.6797 4.87701 9.48717C4.06951 10.2944 3.6161 11.3895 3.6161 12.5313V34.9174C3.6161 35.1456 3.70679 35.3648 3.86835 35.5261C4.02961 35.6877 4.24882 35.7784 4.47705 35.7784H38.9172C39.1455 35.7784 39.3647 35.6877 39.5259 35.5261C39.6875 35.3648 39.7782 35.1456 39.7782 34.9174V17.6973C39.7782 16.5556 39.3247 15.4604 38.5173 14.6532C37.7101 13.8457 36.615 13.3923 35.4733 13.3923ZM5.33811 12.5314C5.33811 11.8464 5.61018 11.1893 6.09486 10.705C6.57924 10.2203 7.23631 9.94821 7.92127 9.94821H12.2263V34.0563H5.3381L5.33811 12.5314ZM13.9482 9.08726V3.92131C13.9482 3.23634 14.2202 2.5793 14.7049 2.09491C15.1893 1.61023 15.8464 1.33816 16.5313 1.33816H26.8634C27.5483 1.33816 28.2054 1.61023 28.6898 2.09491C29.1745 2.57928 29.4465 3.23635 29.4465 3.92131V34.0565H26.0024V26.3074C26.0024 25.6225 25.7304 24.9654 25.246 24.481C24.7616 23.9967 24.1045 23.7243 23.4193 23.7243H19.9752C19.2899 23.7243 18.6332 23.9967 18.1488 24.481C17.6644 24.9654 17.3923 25.6225 17.3923 26.3074V34.0565H13.9482L13.9482 9.08726ZM19.1141 34.0564V26.3074C19.1141 25.8317 19.4997 25.4464 19.9753 25.4464H23.4194C23.648 25.4464 23.8666 25.5371 24.0281 25.6987C24.1897 25.8599 24.2804 26.0791 24.2804 26.3074V34.0564L19.1141 34.0564ZM38.0562 34.0564H31.1683V15.1143H35.4734C36.1583 15.1143 36.8154 15.3867 37.2998 15.871C37.7844 16.3554 38.0565 17.0125 38.0565 17.6974L38.0562 34.0564Z" fill="white"/>
</g>
<defs>
<clipPath id="clip0_1018_2933">
<rect width="43" height="37" fill="white"/>
</clipPath>
</defs>
</svg>
