<svg width="46" height="46" viewBox="0 0 46 46" fill="none" xmlns="http://www.w3.org/2000/svg">
<path d="M23.053 30.7171H15.4136" stroke="white" stroke-width="2" stroke-linecap="round" stroke-linejoin="round"/>
<path d="M30.6924 23.0706H15.4136" stroke="white" stroke-width="2" stroke-linecap="round" stroke-linejoin="round"/>
<path d="M21.1411 15.3651H15.4138" stroke="white" stroke-width="2" stroke-linecap="round" stroke-linejoin="round"/>
<path d="M23.053 40.2559C23.053 40.2559 16.2552 40.2482 16.2322 40.2482C10.9422 40.2156 7.66666 36.7349 7.66666 31.4258V14.5802C7.66666 9.24419 10.9672 5.75011 16.3032 5.75011C16.3032 5.75011 29.7409 5.75586 29.7658 5.75586C35.0558 5.78844 38.3333 9.27103 38.3333 14.5802V23.0708" stroke="white" stroke-width="2" stroke-linecap="round" stroke-linejoin="round"/>
<path d="M36.3824 44.0384L28.75 41.2755V31.468L36.3824 34.2309V44.0384L44.0833 41.2755V31.468L36.3824 34.2309L28.75 31.468L36.3824 28.7051L44.0833 31.468L36.3824 34.2309" stroke="white" stroke-width="2" stroke-linecap="round" stroke-linejoin="round"/>
</svg>
