<svg width="24" height="24" viewBox="0 0 24 24" fill="none" xmlns="http://www.w3.org/2000/svg">
<path d="M12.0276 16.0264H8.04187" stroke="#ffffff" stroke-linecap="round" stroke-linejoin="round"/>
<path d="M16.0134 12.0371H8.04187" stroke="#ffffff" stroke-linecap="round" stroke-linejoin="round"/>
<path d="M11.0302 8.0166H8.04197" stroke="#ffffff" stroke-linecap="round" stroke-linejoin="round"/>
<path d="M12.0276 21.0029C12.0276 21.0029 8.481 20.9989 8.469 20.9989C5.709 20.9819 4 19.1659 4 16.3959V7.60693C4 4.82293 5.722 2.99993 8.506 2.99993C8.506 2.99993 15.517 3.00293 15.53 3.00293C18.29 3.01993 20 4.83693 20 7.60693V12.0368" stroke="#ffffff" stroke-linecap="round" stroke-linejoin="round"/>
<path d="M18.9821 22.9766L15 21.5351V16.4181L18.9821 17.8596V22.9766L23 21.5351V16.4181L18.9821 17.8596L15 16.4181L18.9821 14.9766L23 16.4181L18.9821 17.8596" stroke="#ffffff" stroke-linecap="round" stroke-linejoin="round"/>
</svg>
