<svg width="24" height="23" viewBox="0 0 24 23" fill="none" xmlns="http://www.w3.org/2000/svg">
<path d="M20.1954 12.265V21.2309C20.1954 21.62 19.878 21.9366 19.4877 21.9366H18.9424C18.7482 21.9366 18.5908 22.0936 18.5908 22.2872C18.5908 22.4809 18.7482 22.6379 18.9424 22.6379H19.4877C20.2657 22.6379 20.8986 22.0067 20.8986 21.2309V12.995L21.6143 13.7379C21.9375 14.0734 22.474 14.0791 22.8042 13.7498L23.7577 12.7989C24.0761 12.4815 24.0814 11.9598 23.7694 11.6359L12.9481 0.402936C12.4307 -0.134078 11.5697 -0.134546 11.0519 0.402936L0.230537 11.6359C-0.0813674 11.9597 -0.0761167 12.4814 0.242258 12.7989L1.19579 13.7498C1.52574 14.0787 2.06212 14.0737 2.38574 13.7379L3.10135 12.9951V14.6983C3.10135 14.8919 3.25877 15.0489 3.45296 15.0489C3.64714 15.0489 3.80457 14.8919 3.80457 14.6983V12.2651L11.7327 4.03535C11.8785 3.88402 12.1209 3.8836 12.2673 4.03535C18.5858 10.5942 17.3349 9.29577 20.1954 12.265ZM23.2604 12.303L22.3069 13.2539C22.2446 13.3051 22.1827 13.3045 22.1214 13.252L12.7745 3.54962C12.7744 3.54957 12.7744 3.54957 12.7744 3.54952C12.7739 3.54901 12.7734 3.54859 12.7729 3.54807C12.3499 3.11059 11.6482 3.11078 11.2255 3.54957L3.19937 11.881C3.19919 11.8812 3.19905 11.8814 3.19886 11.8816L1.87862 13.252C1.8173 13.3045 1.75542 13.3051 1.69306 13.2538L0.739533 12.303C0.689885 12.2535 0.689088 12.1721 0.737705 12.1217L11.5591 0.888713C11.8 0.638648 12.2001 0.638695 12.441 0.88876L23.2623 12.1217C23.3109 12.1721 23.3101 12.2535 23.2604 12.303Z" fill="white"/>
<path d="M17.2943 21.9366H15.2084V17.9666C15.2084 16.2024 13.769 14.7671 11.9997 14.7671C10.2305 14.7671 8.7911 16.2024 8.7911 17.9666V21.9366H4.51206C4.12182 21.9366 3.80433 21.62 3.80433 21.2309V16.3345C3.80433 16.1408 3.6469 15.9838 3.45272 15.9838C3.25853 15.9838 3.1011 16.1408 3.1011 16.3345V21.2309C3.1011 22.0067 3.73406 22.6378 4.51206 22.6378H17.2943C17.4886 22.6378 17.646 22.4809 17.646 22.2872C17.646 22.0935 17.4886 21.9366 17.2943 21.9366ZM9.49433 17.9667C9.49433 16.5891 10.6183 15.4684 11.9997 15.4684C13.3812 15.4684 14.5052 16.5892 14.5052 17.9667V21.9366H9.49433V17.9667Z" fill="white"/>
</svg>
