<svg width="24" height="24" viewBox="0 0 24 24" fill="none" xmlns="http://www.w3.org/2000/svg">
<path fill-rule="evenodd" clip-rule="evenodd" d="M8.00002 13.5C11.0238 13.5 13.5998 14.6983 14.5787 16.3766C14.652 16.469 14.7157 16.5669 14.7698 16.6699C14.937 17.0009 15.0131 17.3662 14.9982 17.7284L14.9871 17.8755C14.9593 18.128 14.8869 18.3766 14.7698 18.6083C14.3837 19.3435 13.5452 19.8427 12.1779 20.1188L11.9311 20.1653C11.2564 20.3013 10.5736 20.3897 9.88721 20.4299C9.37851 20.486 8.86982 20.4972 8.35725 20.4994L6.81385 20.5C6.57161 20.4689 6.33695 20.4533 6.10985 20.4533C5.42347 20.418 4.74044 20.3321 4.06599 20.1964C2.60501 19.9161 1.65121 19.4179 1.24244 18.6395C1.11816 18.402 1.04016 18.1426 1.01197 17.8758L1.00352 17.735L1.00011 17.6586C0.997446 17.3715 1.05303 17.0876 1.16265 16.8249L1.23487 16.6699C1.28207 16.5783 1.33692 16.4905 1.39937 16.4064L1.41828 16.3819C2.39478 14.7008 4.97302 13.5 8.00002 13.5Z" stroke="#FFFFFF" stroke-linecap="round" stroke-linejoin="round"/>
<circle cx="8.00002" cy="7.5" r="4" stroke="#FFFFFF" stroke-linecap="round" stroke-linejoin="round"/>
<path d="M16.0083 14.051C16.3309 14.0175 16.6622 14 17 14C19.5919 14 21.7999 15.0271 22.6389 16.4656C22.7017 16.5449 22.7563 16.6288 22.8027 16.7171C22.946 17.0008 23.0113 17.3139 22.9984 17.6244L22.9889 17.7504C22.9651 17.9669 22.903 18.1799 22.8027 18.3786C22.4717 19.0087 21.7531 19.4366 20.581 19.6733L20.3695 19.7131C19.7912 19.8297 19.2059 19.9055 18.6176 19.9399C18.1816 19.988 17.7456 19.9976 17.3062 19.9995C17.3062 19.9995 16.8274 19.9997 16.588 19.9998" stroke="#FFFFFF" stroke-linecap="round" stroke-linejoin="round"/>
<path d="M17.2437 4.5C15.4856 4.5 14.0502 5.98585 13.9649 7.85326L13.9608 8.02941C13.9608 8.5236 13.8479 9.42655 13.6217 10.7208L13.5 11.4018L13.8625 11.5123C14.9301 11.8376 16.0575 12 17.2437 12C18.4307 12 19.5624 11.8334 20.6377 11.4998L21 11.3874L20.8269 10.4371C20.6419 9.37939 20.5426 8.61007 20.5284 8.14054L20.5266 8.02941C20.5266 6.08017 19.0568 4.5 17.2437 4.5Z" stroke="#FFFFFF"/>
</svg>
